<svg xmlns="http://www.w3.org/2000/svg" version="1.1" xmlns:xlink="http://www.w3.org/1999/xlink" xmlns:svgjs="http://svgjs.dev/svgjs" width="1000" height="1000" viewBox="0 0 1000 1000"><rect width="1000" height="1000" fill="#ffffff"></rect><g transform="matrix(0.7,0,0,0.7,149.57575757575762,282.1265587044535)"><svg viewBox="0 0 396 247" data-background-color="#ffffff" preserveAspectRatio="xMidYMid meet" height="623" width="1000" xmlns="http://www.w3.org/2000/svg" xmlns:xlink="http://www.w3.org/1999/xlink"><g id="tight-bounds" transform="matrix(1,0,0,1,0.2400000000000091,-0.09999999999999432)"><svg viewBox="0 0 395.52 247.2" height="247.2" width="395.52"><g><svg></svg></g><g><svg viewBox="0 0 395.52 247.2" height="247.2" width="395.52"><g transform="matrix(1,0,0,1,75.54432,95.64129762822252)"><svg viewBox="0 0 244.43135999999998 55.91740474355495" height="55.91740474355495" width="244.43135999999998"><g><svg viewBox="0 0 244.43135999999998 55.91740474355495" height="55.91740474355495" width="244.43135999999998"><g><svg viewBox="0 0 244.43135999999998 55.91740474355495" height="55.91740474355495" width="244.43135999999998"><g><svg viewBox="0 0 244.43135999999998 55.91740474355495" height="55.91740474355495" width="244.43135999999998"><g><svg viewBox="0 0 244.43135999999998 55.91740474355495" height="55.91740474355495" width="244.43135999999998"><g><svg viewBox="0 0 244.43135999999998 55.91740474355495" height="55.91740474355495" width="244.43135999999998"><g transform="matrix(1,0,0,1,0,0)"><svg width="244.43135999999998" viewBox="1.0499999523162842 -33.5 184.239990234375 42.150001525878906" height="55.91740474355495" data-palette-color="#3d3839"><path d="M2.65 8.65L2.65 8.65Q2 8.65 1.53 8.33 1.05 8 1.05 7.25L1.05 7.25Q1.05 6.9 1.18 6.23 1.3 5.55 1.65 3.9L1.65 3.9 2 3.9Q2.8 4.1 3.25 4.23 3.7 4.35 4.3 4.35L4.3 4.35Q5.3 4.35 6.03 3.9 6.75 3.45 7.13 1.98 7.5 0.5 7.5-2.5L7.5-2.5 7.5-30.15 3.35-32.2 3.35-33 17.95-33 17.95-32.2 13.8-30.15 13.8-12.15Q13.8-8.35 13.1-5.1 12.4-1.85 11.25 0.65 10.1 3.15 8.75 4.65L8.75 4.65Q6.8 6.8 5.5 7.73 4.2 8.65 2.65 8.65ZM40.65 0.5L40.65 0.5Q37 0.5 33.9-0.78 30.8-2.05 28.5-4.33 26.2-6.6 24.92-9.7 23.65-12.8 23.65-16.5L23.65-16.5Q23.65-20.2 24.92-23.3 26.2-26.4 28.5-28.68 30.8-30.95 33.9-32.23 37-33.5 40.65-33.5L40.65-33.5Q44.35-33.5 47.45-32.23 50.55-30.95 52.85-28.68 55.15-26.4 56.42-23.3 57.7-20.2 57.7-16.5L57.7-16.5Q57.7-12.8 56.42-9.7 55.15-6.6 52.85-4.33 50.55-2.05 47.45-0.78 44.35 0.5 40.65 0.5ZM41.55-2.05L41.55-2.05Q44.35-2.05 46.47-3.65 48.6-5.25 49.8-8.15 51-11.05 51-15L51-15Q51-19.85 49.52-23.45 48.05-27.05 45.52-29.03 43-31 39.9-31L39.9-31Q37.15-31 34.97-29.43 32.8-27.85 31.55-24.95 30.3-22.05 30.3-18.1L30.3-18.1Q30.3-13.25 31.8-9.65 33.3-6.05 35.87-4.05 38.45-2.05 41.55-2.05ZM73.95 0.5L73.95 0.5Q70.75 0.5 68.37-0.13 66-0.75 63.65-1.95L63.65-1.95 63.15-10.3 64.05-10.3 67.09-4.55Q70.2-2 73.59-2L73.59-2Q76.4-2 78.09-3.38 79.8-4.75 79.8-7.3L79.8-7.3Q79.8-9.2 78.92-10.38 78.05-11.55 76.25-12.53 74.45-13.5 71.55-14.8L71.55-14.8Q68.05-16.5 66.14-18.48 64.25-20.45 64.25-23.8L64.25-23.8Q64.25-25.7 65.2-27.45 66.14-29.2 67.72-30.55 69.3-31.9 71.27-32.7 73.25-33.5 75.34-33.5L75.34-33.5Q77.84-33.5 80.02-32.93 82.2-32.35 84.2-31.3L84.2-31.3 84.7-23.3 83.84-23.3 80.8-28.8Q79.34-29.9 78.09-30.45 76.84-31 75.25-31L75.25-31Q73.15-31 71.77-29.6 70.4-28.2 70.4-26.05L70.4-26.05Q70.4-23.8 71.9-22.43 73.4-21.05 76.9-19.4L76.9-19.4Q79.95-18 81.9-16.65 83.84-15.3 84.8-13.6 85.75-11.9 85.75-9.4L85.75-9.4Q85.75-7 84.72-5.18 83.7-3.35 81.97-2.08 80.25-0.8 78.15-0.15 76.05 0.5 73.95 0.5ZM105.69 0L91.09 0 91.09-0.8 95.24-2.85 95.24-30.15 91.09-32.2 91.09-33 105.69-33 105.69-32.2 101.54-30.15 101.54-2.85 105.69-0.8 105.69 0ZM120.54 0L109.74 0 109.74-0.8 112.84-2.5 125.79-33.25 129.29-33.25 142.09-2.6 145.49-0.8 145.49 0 131.09 0 131.09-0.8 135.44-2.55 131.89-11.25 119.89-11.25 116.39-2.55 120.54-0.8 120.54 0ZM125.89-25.95L121.04-14 130.74-14 125.89-25.95ZM163.69 0L149.29 0 149.29-0.8 153.49-2.85 153.49-30.15 149.29-32.2 149.29-33 163.69-33 163.69-32.2 159.74-30.15 159.74-18.4 174.89-18.4 174.89-30.15 170.94-32.2 170.94-33 185.29-33 185.29-32.2 181.19-30.15 181.19-2.85 185.29-0.8 185.29 0 170.94 0 170.94-0.8 174.89-2.85 174.89-15.65 159.74-15.65 159.74-2.85 163.69-0.8 163.69 0Z" opacity="1" transform="matrix(1,0,0,1,0,0)" fill="#3d3839" class="undefined-text-0" data-fill-palette-color="primary" id="text-0"></path></svg></g></svg></g></svg></g></svg></g></svg></g></svg></g></svg></g><g><path d="M0 123.6c0-68.262 55.338-123.6 123.6-123.6 56.267 0 103.752 37.598 118.704 89.041l-2.629 0c-14.874-50.032-61.213-86.52-116.075-86.52-66.87 0-121.079 54.209-121.079 121.079 0 66.87 54.209 121.079 121.079 121.079 54.862 0 101.201-36.488 116.075-86.52l2.629 0c-14.951 51.443-62.437 89.041-118.704 89.041-68.262 0-123.6-55.338-123.6-123.6z" fill="#3d3839" stroke="transparent" data-fill-palette-color="tertiary"></path></g></svg></g><defs></defs></svg><rect width="395.52" height="247.2" fill="none" stroke="none" visibility="hidden"></rect></g></svg></g></svg>